<mxfile host="app.diagrams.net" modified="2023-06-04T22:53:10.246Z" agent="Mozilla/5.0 (Windows NT 10.0; Win64; x64) AppleWebKit/537.36 (KHTML, like Gecko) Chrome/113.0.0.0 Safari/537.36" etag="C2OqL4RC7Uyowqfp4XHM" version="21.3.7" type="device">
  <diagram name="Page-1" id="GwTmL5Jptg0MmvJ5INwO">
    <mxGraphModel dx="1134" dy="614" grid="0" gridSize="10" guides="1" tooltips="1" connect="1" arrows="1" fold="1" page="1" pageScale="1" pageWidth="850" pageHeight="1100" background="none" math="0" shadow="0">
      <root>
        <mxCell id="0" />
        <mxCell id="1" parent="0" />
        <mxCell id="5iR24Ttc8lTDf9j6z3ED-7" style="edgeStyle=orthogonalEdgeStyle;rounded=0;orthogonalLoop=1;jettySize=auto;html=1;exitX=0.5;exitY=1;exitDx=0;exitDy=0;entryX=0.5;entryY=0;entryDx=0;entryDy=0;" edge="1" parent="1" source="5iR24Ttc8lTDf9j6z3ED-1" target="5iR24Ttc8lTDf9j6z3ED-2">
          <mxGeometry relative="1" as="geometry" />
        </mxCell>
        <mxCell id="5iR24Ttc8lTDf9j6z3ED-28" value="" style="edgeStyle=orthogonalEdgeStyle;rounded=0;orthogonalLoop=1;jettySize=auto;html=1;" edge="1" parent="1" source="5iR24Ttc8lTDf9j6z3ED-1" target="5iR24Ttc8lTDf9j6z3ED-5">
          <mxGeometry relative="1" as="geometry" />
        </mxCell>
        <mxCell id="5iR24Ttc8lTDf9j6z3ED-29" style="edgeStyle=orthogonalEdgeStyle;rounded=0;orthogonalLoop=1;jettySize=auto;html=1;exitX=0.5;exitY=1;exitDx=0;exitDy=0;entryX=0.5;entryY=0;entryDx=0;entryDy=0;" edge="1" parent="1" source="5iR24Ttc8lTDf9j6z3ED-1" target="5iR24Ttc8lTDf9j6z3ED-6">
          <mxGeometry relative="1" as="geometry" />
        </mxCell>
        <mxCell id="5iR24Ttc8lTDf9j6z3ED-30" style="edgeStyle=orthogonalEdgeStyle;rounded=0;orthogonalLoop=1;jettySize=auto;html=1;exitX=0.5;exitY=1;exitDx=0;exitDy=0;" edge="1" parent="1" source="5iR24Ttc8lTDf9j6z3ED-1" target="5iR24Ttc8lTDf9j6z3ED-4">
          <mxGeometry relative="1" as="geometry" />
        </mxCell>
        <mxCell id="5iR24Ttc8lTDf9j6z3ED-1" value="Home" style="rounded=1;whiteSpace=wrap;html=1;fillColor=#dae8fc;strokeColor=#6c8ebf;" vertex="1" parent="1">
          <mxGeometry x="290" y="20" width="120" height="60" as="geometry" />
        </mxCell>
        <mxCell id="5iR24Ttc8lTDf9j6z3ED-13" style="edgeStyle=orthogonalEdgeStyle;rounded=0;orthogonalLoop=1;jettySize=auto;html=1;exitX=0;exitY=0.5;exitDx=0;exitDy=0;entryX=0;entryY=0.5;entryDx=0;entryDy=0;" edge="1" parent="1" source="5iR24Ttc8lTDf9j6z3ED-2" target="5iR24Ttc8lTDf9j6z3ED-11">
          <mxGeometry relative="1" as="geometry" />
        </mxCell>
        <mxCell id="5iR24Ttc8lTDf9j6z3ED-14" style="edgeStyle=orthogonalEdgeStyle;rounded=0;orthogonalLoop=1;jettySize=auto;html=1;exitX=0;exitY=0.5;exitDx=0;exitDy=0;entryX=0;entryY=0.5;entryDx=0;entryDy=0;" edge="1" parent="1" source="5iR24Ttc8lTDf9j6z3ED-2" target="5iR24Ttc8lTDf9j6z3ED-12">
          <mxGeometry relative="1" as="geometry" />
        </mxCell>
        <mxCell id="5iR24Ttc8lTDf9j6z3ED-2" value="Employees" style="rounded=1;whiteSpace=wrap;html=1;fillColor=#dae8fc;strokeColor=#6c8ebf;" vertex="1" parent="1">
          <mxGeometry x="40" y="140" width="120" height="60" as="geometry" />
        </mxCell>
        <mxCell id="5iR24Ttc8lTDf9j6z3ED-17" style="edgeStyle=orthogonalEdgeStyle;rounded=0;orthogonalLoop=1;jettySize=auto;html=1;exitX=0;exitY=0.5;exitDx=0;exitDy=0;entryX=0;entryY=0.5;entryDx=0;entryDy=0;" edge="1" parent="1" source="5iR24Ttc8lTDf9j6z3ED-4" target="5iR24Ttc8lTDf9j6z3ED-15">
          <mxGeometry relative="1" as="geometry" />
        </mxCell>
        <mxCell id="5iR24Ttc8lTDf9j6z3ED-18" style="edgeStyle=orthogonalEdgeStyle;rounded=0;orthogonalLoop=1;jettySize=auto;html=1;exitX=0;exitY=0.5;exitDx=0;exitDy=0;entryX=0;entryY=0.5;entryDx=0;entryDy=0;" edge="1" parent="1" source="5iR24Ttc8lTDf9j6z3ED-4" target="5iR24Ttc8lTDf9j6z3ED-16">
          <mxGeometry relative="1" as="geometry" />
        </mxCell>
        <mxCell id="5iR24Ttc8lTDf9j6z3ED-4" value="Assets" style="rounded=1;whiteSpace=wrap;html=1;fillColor=#dae8fc;strokeColor=#6c8ebf;" vertex="1" parent="1">
          <mxGeometry x="210" y="140" width="120" height="60" as="geometry" />
        </mxCell>
        <mxCell id="5iR24Ttc8lTDf9j6z3ED-21" style="edgeStyle=orthogonalEdgeStyle;rounded=0;orthogonalLoop=1;jettySize=auto;html=1;exitX=0;exitY=0.5;exitDx=0;exitDy=0;entryX=0;entryY=0.5;entryDx=0;entryDy=0;" edge="1" parent="1" source="5iR24Ttc8lTDf9j6z3ED-5" target="5iR24Ttc8lTDf9j6z3ED-19">
          <mxGeometry relative="1" as="geometry" />
        </mxCell>
        <mxCell id="5iR24Ttc8lTDf9j6z3ED-22" style="edgeStyle=orthogonalEdgeStyle;rounded=0;orthogonalLoop=1;jettySize=auto;html=1;exitX=0;exitY=0.5;exitDx=0;exitDy=0;entryX=0;entryY=0.5;entryDx=0;entryDy=0;" edge="1" parent="1" source="5iR24Ttc8lTDf9j6z3ED-5" target="5iR24Ttc8lTDf9j6z3ED-20">
          <mxGeometry relative="1" as="geometry" />
        </mxCell>
        <mxCell id="5iR24Ttc8lTDf9j6z3ED-5" value="Jobs" style="rounded=1;whiteSpace=wrap;html=1;fillColor=#dae8fc;strokeColor=#6c8ebf;" vertex="1" parent="1">
          <mxGeometry x="380" y="140" width="120" height="60" as="geometry" />
        </mxCell>
        <mxCell id="5iR24Ttc8lTDf9j6z3ED-27" style="edgeStyle=orthogonalEdgeStyle;rounded=0;orthogonalLoop=1;jettySize=auto;html=1;exitX=0;exitY=0.5;exitDx=0;exitDy=0;entryX=0;entryY=0.5;entryDx=0;entryDy=0;" edge="1" parent="1" source="5iR24Ttc8lTDf9j6z3ED-6" target="5iR24Ttc8lTDf9j6z3ED-23">
          <mxGeometry relative="1" as="geometry" />
        </mxCell>
        <mxCell id="5iR24Ttc8lTDf9j6z3ED-31" style="edgeStyle=orthogonalEdgeStyle;rounded=0;orthogonalLoop=1;jettySize=auto;html=1;exitX=0;exitY=0.5;exitDx=0;exitDy=0;entryX=0;entryY=0.5;entryDx=0;entryDy=0;" edge="1" parent="1" source="5iR24Ttc8lTDf9j6z3ED-6" target="5iR24Ttc8lTDf9j6z3ED-24">
          <mxGeometry relative="1" as="geometry" />
        </mxCell>
        <mxCell id="5iR24Ttc8lTDf9j6z3ED-33" style="edgeStyle=orthogonalEdgeStyle;rounded=0;orthogonalLoop=1;jettySize=auto;html=1;exitX=0;exitY=0.5;exitDx=0;exitDy=0;entryX=0;entryY=0.5;entryDx=0;entryDy=0;" edge="1" parent="1" source="5iR24Ttc8lTDf9j6z3ED-6" target="5iR24Ttc8lTDf9j6z3ED-25">
          <mxGeometry relative="1" as="geometry" />
        </mxCell>
        <mxCell id="5iR24Ttc8lTDf9j6z3ED-35" style="edgeStyle=orthogonalEdgeStyle;rounded=0;orthogonalLoop=1;jettySize=auto;html=1;exitX=0;exitY=0.5;exitDx=0;exitDy=0;entryX=0;entryY=0.5;entryDx=0;entryDy=0;" edge="1" parent="1" source="5iR24Ttc8lTDf9j6z3ED-6" target="5iR24Ttc8lTDf9j6z3ED-26">
          <mxGeometry relative="1" as="geometry" />
        </mxCell>
        <mxCell id="5iR24Ttc8lTDf9j6z3ED-6" value="Administration" style="rounded=1;whiteSpace=wrap;html=1;fillColor=#dae8fc;strokeColor=#6c8ebf;" vertex="1" parent="1">
          <mxGeometry x="550" y="140" width="120" height="60" as="geometry" />
        </mxCell>
        <mxCell id="5iR24Ttc8lTDf9j6z3ED-11" value="Add/Edit Form" style="rounded=1;whiteSpace=wrap;html=1;dashed=1;fillColor=#f5f5f5;fontColor=#333333;strokeColor=#666666;" vertex="1" parent="1">
          <mxGeometry x="40" y="230" width="120" height="60" as="geometry" />
        </mxCell>
        <mxCell id="5iR24Ttc8lTDf9j6z3ED-12" value="List Table w/Delete Btn" style="rounded=1;whiteSpace=wrap;html=1;dashed=1;fillColor=#f5f5f5;fontColor=#333333;strokeColor=#666666;" vertex="1" parent="1">
          <mxGeometry x="40" y="320" width="120" height="60" as="geometry" />
        </mxCell>
        <mxCell id="5iR24Ttc8lTDf9j6z3ED-15" value="Add/Edit Form" style="rounded=1;whiteSpace=wrap;html=1;dashed=1;fillColor=#f5f5f5;fontColor=#333333;strokeColor=#666666;" vertex="1" parent="1">
          <mxGeometry x="210" y="230" width="120" height="60" as="geometry" />
        </mxCell>
        <mxCell id="5iR24Ttc8lTDf9j6z3ED-16" value="List Table w/Delete Btn" style="rounded=1;whiteSpace=wrap;html=1;dashed=1;fillColor=#f5f5f5;fontColor=#333333;strokeColor=#666666;" vertex="1" parent="1">
          <mxGeometry x="210" y="310" width="120" height="60" as="geometry" />
        </mxCell>
        <mxCell id="5iR24Ttc8lTDf9j6z3ED-19" value="Add/Edit Form" style="rounded=1;whiteSpace=wrap;html=1;dashed=1;fillColor=#f5f5f5;fontColor=#333333;strokeColor=#666666;" vertex="1" parent="1">
          <mxGeometry x="380" y="230" width="120" height="60" as="geometry" />
        </mxCell>
        <mxCell id="5iR24Ttc8lTDf9j6z3ED-20" value="List Table w/Delete Btn" style="rounded=1;whiteSpace=wrap;html=1;dashed=1;fillColor=#f5f5f5;fontColor=#333333;strokeColor=#666666;" vertex="1" parent="1">
          <mxGeometry x="380" y="310" width="120" height="60" as="geometry" />
        </mxCell>
        <mxCell id="5iR24Ttc8lTDf9j6z3ED-23" value="AssetTypes" style="rounded=1;whiteSpace=wrap;html=1;dashed=1;fillColor=#f5f5f5;fontColor=#333333;strokeColor=#666666;" vertex="1" parent="1">
          <mxGeometry x="550" y="220" width="120" height="60" as="geometry" />
        </mxCell>
        <mxCell id="5iR24Ttc8lTDf9j6z3ED-24" value="Priorities" style="rounded=1;whiteSpace=wrap;html=1;dashed=1;fillColor=#f5f5f5;fontColor=#333333;strokeColor=#666666;" vertex="1" parent="1">
          <mxGeometry x="550" y="290" width="120" height="60" as="geometry" />
        </mxCell>
        <mxCell id="5iR24Ttc8lTDf9j6z3ED-25" value="Skills" style="rounded=1;whiteSpace=wrap;html=1;dashed=1;fillColor=#f5f5f5;fontColor=#333333;strokeColor=#666666;" vertex="1" parent="1">
          <mxGeometry x="550" y="360" width="120" height="60" as="geometry" />
        </mxCell>
        <mxCell id="5iR24Ttc8lTDf9j6z3ED-26" value="Statuses" style="rounded=1;whiteSpace=wrap;html=1;dashed=1;fillColor=#f5f5f5;fontColor=#333333;strokeColor=#666666;" vertex="1" parent="1">
          <mxGeometry x="550" y="430" width="120" height="60" as="geometry" />
        </mxCell>
      </root>
    </mxGraphModel>
  </diagram>
</mxfile>
